<svg id="Layer_1" data-name="Layer 1" xmlns="http://www.w3.org/2000/svg" viewBox="0 0 1796 1796"><defs><style>.cls-1{fill:#e8e0ef;}</style></defs><title>logo</title><path class="cls-1" d="M902,1800a67.58,67.58,0,0,1-47.93-19.85L23.85,949.93a67.78,67.78,0,0,1,0-95.85L391,486.89,23.85,119.7A67.77,67.77,0,0,1,119.7,23.86L486.89,391,854.07,23.86a67.77,67.77,0,0,1,95.85,95.84L582.73,486.89,902,806.16l782.3-782.3A67.77,67.77,0,0,1,1800,71.78V902a67.79,67.79,0,0,1-19.85,47.93L949.93,1780.15A67.58,67.58,0,0,1,902,1800ZM167.62,902,902,1636.38l762.45-762.45V235.4L949.93,949.93a67.8,67.8,0,0,1-95.85,0L486.89,582.73Z" transform="translate(-4 -4)"/></svg>